<?xml version="1.0" encoding="utf-8"?>
<!-- Generator: Adobe Illustrator 16.0.0, SVG Export Plug-In . SVG Version: 6.00 Build 0)  -->
<!DOCTYPE svg PUBLIC "-//W3C//DTD SVG 1.1//EN" "http://www.w3.org/Graphics/SVG/1.1/DTD/svg11.dtd">
<svg version="1.1" id="Layer_1" xmlns="http://www.w3.org/2000/svg" xmlns:xlink="http://www.w3.org/1999/xlink" x="0px" y="0px"
	 width="64px" height="64px" viewBox="0 0 64 64" enable-background="new 0 0 64 64" xml:space="preserve">
<g>
	<g>
		<path d="M22.462,32.546c-1.875,0-3.598-0.303-5.17-0.908c-1.572-0.604-2.93-1.506-4.072-2.704
			c-1.143-1.197-2.028-2.691-2.657-4.482c-0.629-1.79-0.943-3.845-0.943-6.167c0-2.309,0.305-4.321,0.915-6.038
			c0.609-1.716,1.498-3.21,2.666-4.482c1.142-1.234,2.496-2.176,4.062-2.825c1.565-0.648,3.317-0.972,5.255-0.972
			c0.963,0,1.864,0.068,2.706,0.204c0.841,0.136,1.62,0.309,2.339,0.518c0.616,0.186,1.248,0.417,1.896,0.694
			c0.648,0.278,1.286,0.583,1.915,0.917v4.426h-0.308c-0.334-0.296-0.764-0.654-1.29-1.075c-0.527-0.419-1.168-0.832-1.925-1.24
			c-0.731-0.383-1.527-0.697-2.388-0.944c-0.86-0.247-1.855-0.371-2.984-0.371c-1.219,0-2.374,0.24-3.465,0.722
			c-1.091,0.482-2.047,1.192-2.868,2.13c-0.809,0.938-1.438,2.118-1.887,3.538c-0.449,1.42-0.674,3.019-0.674,4.796
			c0,1.889,0.237,3.517,0.712,4.88c0.475,1.365,1.123,2.516,1.945,3.454c0.795,0.914,1.732,1.602,2.811,2.066
			c1.078,0.463,2.22,0.695,3.426,0.695c1.104,0,2.125-0.13,3.062-0.39c0.938-0.259,1.771-0.586,2.503-0.981
			c0.706-0.383,1.315-0.774,1.83-1.176c0.512-0.401,0.917-0.743,1.212-1.027h0.289v4.371c-0.629,0.284-1.223,0.556-1.781,0.814
			c-0.558,0.26-1.236,0.512-2.031,0.759c-0.835,0.259-1.608,0.456-2.32,0.592C24.531,32.479,23.603,32.546,22.462,32.546z"/>
		<path d="M54.381,23.582c0,1.37-0.27,2.58-0.81,3.63c-0.539,1.05-1.264,1.914-2.173,2.593c-1.078,0.815-2.233,1.392-3.467,1.731
			c-1.231,0.34-2.824,0.509-4.774,0.509h-8.221V4.468h7.604c2.042,0,3.572,0.065,4.593,0.195c1.02,0.129,1.999,0.435,2.935,0.917
			c1.027,0.531,1.776,1.226,2.254,2.083c0.474,0.858,0.71,1.868,0.71,3.028c0,1.296-0.354,2.458-1.067,3.482
			c-0.711,1.025-1.697,1.828-2.954,2.408v0.148c1.707,0.444,3.027,1.256,3.966,2.436C53.912,20.344,54.381,21.817,54.381,23.582z
			 M49.066,11.209c0-0.667-0.115-1.243-0.346-1.731c-0.231-0.487-0.604-0.873-1.117-1.158c-0.615-0.333-1.303-0.537-2.059-0.611
			c-0.758-0.074-1.804-0.11-3.14-0.11h-3.658v8.075h4.334c1.193,0,2.072-0.058,2.637-0.176c0.564-0.117,1.149-0.361,1.753-0.731
			c0.576-0.358,0.986-0.827,1.231-1.408C48.945,12.778,49.066,12.062,49.066,11.209z M50.414,23.73c0-1.037-0.153-1.892-0.461-2.565
			c-0.308-0.673-0.931-1.244-1.866-1.713c-0.604-0.309-1.261-0.505-1.974-0.593c-0.714-0.086-1.724-0.129-3.032-0.129h-4.334v10.187
			h3.102c1.668,0,2.983-0.075,3.946-0.223c0.962-0.148,1.809-0.462,2.541-0.944c0.719-0.481,1.244-1.028,1.578-1.639
			C50.249,25.499,50.414,24.706,50.414,23.73z"/>
		<path d="M43.726,32.453l-9.858,27.578h-4.119l-9.857-27.578h4.082l7.932,22.893l7.932-22.893H43.726z"/>
	</g>
	<g>
		
			<linearGradient id="SVGID_1_" gradientUnits="userSpaceOnUse" x1="31.7563" y1="6.811" x2="31.7563" y2="46.1087" gradientTransform="matrix(1 0 0 1 0.2441 1.8213)">
			<stop  offset="0" style="stop-color:#FF0000"/>
			<stop  offset="0.216" style="stop-color:#C20000"/>
			<stop  offset="0.6041" style="stop-color:#5B0000"/>
			<stop  offset="0.8737" style="stop-color:#190000"/>
			<stop  offset="1" style="stop-color:#000000"/>
		</linearGradient>
		<path fill="url(#SVGID_1_)" d="M22.462,32.546c-1.875,0-3.598-0.303-5.17-0.908c-1.572-0.604-2.93-1.506-4.072-2.704
			c-1.143-1.197-2.028-2.691-2.657-4.482c-0.629-1.79-0.943-3.845-0.943-6.167c0-2.309,0.305-4.321,0.915-6.038
			c0.609-1.716,1.498-3.21,2.666-4.482c1.142-1.234,2.496-2.176,4.062-2.825c1.565-0.648,3.317-0.972,5.255-0.972
			c0.963,0,1.864,0.068,2.706,0.204c0.841,0.136,1.62,0.309,2.339,0.518c0.616,0.186,1.248,0.417,1.896,0.694
			c0.648,0.278,1.286,0.583,1.915,0.917v4.426h-0.308c-0.334-0.296-0.764-0.654-1.29-1.075c-0.527-0.419-1.168-0.832-1.925-1.24
			c-0.731-0.383-1.527-0.697-2.388-0.944c-0.86-0.247-1.855-0.371-2.984-0.371c-1.219,0-2.374,0.24-3.465,0.722
			c-1.091,0.482-2.047,1.192-2.868,2.13c-0.809,0.938-1.438,2.118-1.887,3.538c-0.449,1.42-0.674,3.019-0.674,4.796
			c0,1.889,0.237,3.517,0.712,4.88c0.475,1.365,1.123,2.516,1.945,3.454c0.795,0.914,1.732,1.602,2.811,2.066
			c1.078,0.463,2.22,0.695,3.426,0.695c1.104,0,2.125-0.13,3.062-0.39c0.938-0.259,1.771-0.586,2.503-0.981
			c0.706-0.383,1.315-0.774,1.83-1.176c0.512-0.401,0.917-0.743,1.212-1.027h0.289v4.371c-0.629,0.284-1.223,0.556-1.781,0.814
			c-0.558,0.26-1.236,0.512-2.031,0.759c-0.835,0.259-1.608,0.456-2.32,0.592C24.531,32.479,23.603,32.546,22.462,32.546z"/>
		
			<linearGradient id="SVGID_2_" gradientUnits="userSpaceOnUse" x1="31.7563" y1="6.811" x2="31.7563" y2="46.1087" gradientTransform="matrix(1 0 0 1 0.2441 1.8213)">
			<stop  offset="0" style="stop-color:#FF0000"/>
			<stop  offset="0.216" style="stop-color:#C20000"/>
			<stop  offset="0.6041" style="stop-color:#5B0000"/>
			<stop  offset="0.8737" style="stop-color:#190000"/>
			<stop  offset="1" style="stop-color:#000000"/>
		</linearGradient>
		<path fill="url(#SVGID_2_)" d="M54.381,23.582c0,1.37-0.27,2.58-0.81,3.63c-0.539,1.05-1.264,1.914-2.173,2.593
			c-1.078,0.815-2.233,1.392-3.467,1.731c-1.231,0.34-2.824,0.509-4.774,0.509h-8.221V4.468h7.604c2.042,0,3.572,0.065,4.593,0.195
			c1.02,0.129,1.999,0.435,2.935,0.917c1.027,0.531,1.776,1.226,2.254,2.083c0.474,0.858,0.71,1.868,0.71,3.028
			c0,1.296-0.354,2.458-1.067,3.482c-0.711,1.025-1.697,1.828-2.954,2.408v0.148c1.707,0.444,3.027,1.256,3.966,2.436
			C53.912,20.344,54.381,21.817,54.381,23.582z M49.066,11.209c0-0.667-0.115-1.243-0.346-1.731
			c-0.231-0.487-0.604-0.873-1.117-1.158c-0.615-0.333-1.303-0.537-2.059-0.611c-0.758-0.074-1.804-0.11-3.14-0.11h-3.658v8.075
			h4.334c1.193,0,2.072-0.058,2.637-0.176c0.564-0.117,1.149-0.361,1.753-0.731c0.576-0.358,0.986-0.827,1.231-1.408
			C48.945,12.778,49.066,12.062,49.066,11.209z M50.414,23.73c0-1.037-0.153-1.892-0.461-2.565
			c-0.308-0.673-0.931-1.244-1.866-1.713c-0.604-0.309-1.261-0.505-1.974-0.593c-0.714-0.086-1.724-0.129-3.032-0.129h-4.334v10.187
			h3.102c1.668,0,2.983-0.075,3.946-0.223c0.962-0.148,1.809-0.462,2.541-0.944c0.719-0.481,1.244-1.028,1.578-1.639
			C50.249,25.499,50.414,24.706,50.414,23.73z"/>
		
			<linearGradient id="SVGID_3_" gradientUnits="userSpaceOnUse" x1="31.7563" y1="6.811" x2="31.7563" y2="46.1087" gradientTransform="matrix(1 0 0 1 0.2441 1.8213)">
			<stop  offset="0" style="stop-color:#FF0000"/>
			<stop  offset="0.216" style="stop-color:#C20000"/>
			<stop  offset="0.6041" style="stop-color:#5B0000"/>
			<stop  offset="0.8737" style="stop-color:#190000"/>
			<stop  offset="1" style="stop-color:#000000"/>
		</linearGradient>
		<path fill="url(#SVGID_3_)" d="M43.726,32.453l-9.858,27.578h-4.119l-9.857-27.578h4.082l7.932,22.893l7.932-22.893H43.726z"/>
	</g>
	<g>
		<path fill="none" stroke="#B5151B" stroke-width="0.6" d="M22.462,32.546c-1.875,0-3.598-0.303-5.17-0.908
			c-1.572-0.604-2.93-1.506-4.072-2.704c-1.143-1.197-2.028-2.691-2.657-4.482c-0.629-1.79-0.943-3.845-0.943-6.167
			c0-2.309,0.305-4.321,0.915-6.038c0.609-1.716,1.498-3.21,2.666-4.482c1.142-1.234,2.496-2.176,4.062-2.825
			c1.565-0.648,3.317-0.972,5.255-0.972c0.963,0,1.864,0.068,2.706,0.204c0.841,0.136,1.62,0.309,2.339,0.518
			c0.616,0.186,1.248,0.417,1.896,0.694c0.648,0.278,1.286,0.583,1.915,0.917v4.426h-0.308c-0.334-0.296-0.764-0.654-1.29-1.075
			c-0.527-0.419-1.168-0.832-1.925-1.24c-0.731-0.383-1.527-0.697-2.388-0.944c-0.86-0.247-1.855-0.371-2.984-0.371
			c-1.219,0-2.374,0.24-3.465,0.722c-1.091,0.482-2.047,1.192-2.868,2.13c-0.809,0.938-1.438,2.118-1.887,3.538
			c-0.449,1.42-0.674,3.019-0.674,4.796c0,1.889,0.237,3.517,0.712,4.88c0.475,1.365,1.123,2.516,1.945,3.454
			c0.795,0.914,1.732,1.602,2.811,2.066c1.078,0.463,2.22,0.695,3.426,0.695c1.104,0,2.125-0.13,3.062-0.39
			c0.938-0.259,1.771-0.586,2.503-0.981c0.706-0.383,1.315-0.774,1.83-1.176c0.512-0.401,0.917-0.743,1.212-1.027h0.289v4.371
			c-0.629,0.284-1.223,0.556-1.781,0.814c-0.558,0.26-1.236,0.512-2.031,0.759c-0.835,0.259-1.608,0.456-2.32,0.592
			C24.531,32.479,23.603,32.546,22.462,32.546z"/>
		<path fill="none" stroke="#B5151B" stroke-width="0.6" d="M54.381,23.582c0,1.37-0.27,2.58-0.81,3.63
			c-0.539,1.05-1.264,1.914-2.173,2.593c-1.078,0.815-2.233,1.392-3.467,1.731c-1.231,0.34-2.824,0.509-4.774,0.509h-8.221V4.468
			h7.604c2.042,0,3.572,0.065,4.593,0.195c1.02,0.129,1.999,0.435,2.935,0.917c1.027,0.531,1.776,1.226,2.254,2.083
			c0.474,0.858,0.71,1.868,0.71,3.028c0,1.296-0.354,2.458-1.067,3.482c-0.711,1.025-1.697,1.828-2.954,2.408v0.148
			c1.707,0.444,3.027,1.256,3.966,2.436C53.912,20.344,54.381,21.817,54.381,23.582z M49.066,11.209
			c0-0.667-0.115-1.243-0.346-1.731c-0.231-0.487-0.604-0.873-1.117-1.158c-0.615-0.333-1.303-0.537-2.059-0.611
			c-0.758-0.074-1.804-0.11-3.14-0.11h-3.658v8.075h4.334c1.193,0,2.072-0.058,2.637-0.176c0.564-0.117,1.149-0.361,1.753-0.731
			c0.576-0.358,0.986-0.827,1.231-1.408C48.945,12.778,49.066,12.062,49.066,11.209z M50.414,23.73c0-1.037-0.153-1.892-0.461-2.565
			c-0.308-0.673-0.931-1.244-1.866-1.713c-0.604-0.309-1.261-0.505-1.974-0.593c-0.714-0.086-1.724-0.129-3.032-0.129h-4.334v10.187
			h3.102c1.668,0,2.983-0.075,3.946-0.223c0.962-0.148,1.809-0.462,2.541-0.944c0.719-0.481,1.244-1.028,1.578-1.639
			C50.249,25.499,50.414,24.706,50.414,23.73z"/>
		<path fill="none" stroke="#B5151B" stroke-width="0.6" d="M43.726,32.453l-9.858,27.578h-4.119l-9.857-27.578h4.082l7.932,22.893
			l7.932-22.893H43.726z"/>
	</g>
</g>
</svg>
